Coordinates
version=1
nRows=5
nColumns=63
inDegrees=yes

Units are S.I. units (second, meters, Newtons, ...)
If the header above contains a line with 'inDegrees', this indicates whether rotational values are in degrees (yes) or radians (no).

endheader
time	pelvis_tilt	pelvis_list	pelvis_rotation	pelvis_tx	pelvis_ty	pelvis_tz	hip_flexion_r	hip_adduction_r	hip_rotation_r	knee_angle_r	knee_angle_r_beta	ankle_angle_r	subtalar_angle_r	mtp_angle_r	hip_flexion_l	hip_adduction_l	hip_rotation_l	knee_angle_l	knee_angle_l_beta	ankle_angle_l	subtalar_angle_l	mtp_angle_l	L5_S1_Flex_Ext	L5_S1_Lat_Bending	L5_S1_axial_rotation	L4_L5_Flex_Ext	L4_L5_Lat_Bending	L4_L5_axial_rotation	L3_L4_Flex_Ext	L3_L4_Lat_Bending	L3_L4_axial_rotation	L2_L3_Flex_Ext	L2_L3_Lat_Bending	L2_L3_axial_rotation	L1_L2_Flex_Ext	L1_L2_Lat_Bending	L1_L2_axial_rotation	L1_T12_Flex_Ext	L1_T12_Lat_Bending	L1_T12_axial_rotation	Abs_r3	Abs_r2	Abs_r1	Abs_t1	Abs_t2	neck_flexion	neck_bending	neck_rotation	arm_flex_r	arm_add_r	arm_rot_r	elbow_flex_r	pro_sup_r	wrist_flex_r	wrist_dev_r	arm_flex_l	arm_add_l	arm_rot_l	elbow_flex_l	pro_sup_l	wrist_flex_l	wrist_dev_l
      1.26530612	      1.76150366	     -5.60811369	     87.55187334	      0.22758509	      0.77267597	      0.79857898	     12.96916971	      0.36381804	     12.65622654	     10.35547238	      0.18073709	     32.20759043	     -1.50843037	      0.00000000	     11.31164336	     -2.69989496	    -17.74349976	      9.35103090	      0.16320628	     39.41310867	     15.84991163	      0.00000000	     -0.03980883	     -0.39141203	      0.09324389	     -0.07392898	     -0.52057800	      0.09907163	     -0.06540193	     -0.95167921	      0.09907163	     -0.04549751	     -0.95167921	      0.08158840	     -0.03696648	     -0.79816741	      0.07576066	     -0.02274677	     -0.60629723	      0.06993292	     -0.28435050	     -4.42773114	      0.51859454	      0.00000000	      0.00000000	     27.05994081	      3.04711649	     -1.34288945	     21.15360031	      7.97774043	    -48.79845729	    108.58532407	     88.17363259	    -15.05826160	     -9.84910178	     19.93655127	      5.56051562	    192.75281773	      0.47738303	      2.10342871	     -7.34387696	    -17.61827033
      1.28571429	      1.66207691	     -5.29779614	     87.95104950	      0.22805650	      0.77075191	      0.79922041	     12.88843132	      0.26070267	     12.05744640	     10.74077126	      0.18746182	     33.31583553	     -0.53711287	      0.00000000	     11.23612675	     -2.65380829	    -18.37253942	      9.78580266	      0.17079448	     39.96078941	     16.31862096	      0.00000000	     -0.09319046	     -0.40242582	     -0.10231939	     -0.17306400	     -0.53522634	     -0.10871435	     -0.15310260	     -0.97845814	     -0.10871435	     -0.10650738	     -0.97845814	     -0.08952946	     -0.08653666	     -0.82062673	     -0.08313450	     -0.05324903	     -0.62335759	     -0.07673954	     -0.66565013	     -4.55232135	     -0.56906972	      0.00000000	      0.00000000	     26.96431064	      3.34262840	     -0.11327047	     19.42788486	      9.61356153	    -48.14518937	    108.98705676	     87.95017475	    -18.68616769	     -5.65713339	     19.89423480	      5.49977994	    192.64270641	      0.46059447	      2.04164232	     -6.90029327	    -16.67943541
      1.30612245	      1.58245677	     -4.92997690	     88.28185768	      0.22869286	      0.76917573	      0.79990043	     12.69186306	      0.18625607	     11.63308856	     10.89600246	      0.19017112	     34.32747492	      0.55541948	      0.00000000	     11.06699189	     -2.63561990	    -19.05015267	     10.15288011	      0.17720119	     40.27029159	     16.62293565	      0.00000000	     -0.14704534	     -0.41407364	     -0.21119847	     -0.27307790	     -0.55071794	     -0.22439837	     -0.24158079	     -1.00677865	     -0.22439837	     -0.16805812	     -1.00677865	     -0.18479866	     -0.13654630	     -0.84437896	     -0.17159875	     -0.08402171	     -0.64140007	     -0.15839885	     -1.05033016	     -4.68408382	     -1.17462251	      0.00000000	      0.00000000	     26.74660979	      3.67738344	      0.71378927	     17.88026797	     10.70431581	    -47.48776754	    108.86626548	     85.56872678	    -19.05327188	     -3.20913333	     19.84764936	      5.53343987	    190.76871861	      0.44878378	      1.81474100	     -6.78676876	    -16.12680107
      1.32653061	      2.39334553	     -4.48171179	     88.79471504	      0.22575703	      0.76960297	      0.79986036	     12.08407410	      0.59812608	      9.13036262	     10.42264541	      0.18190948	     34.95164498	      4.25033796	      0.00000000	     10.68651739	     -3.27191428	    -19.11294746	     10.26172600	      0.17910091	     40.29961983	     16.71951806	      0.00000000	     -0.18764172	     -0.26428267	     -0.08591563	     -0.34846944	     -0.35149596	     -0.09128535	     -0.30827659	     -0.64257689	     -0.09128535	     -0.21445572	     -0.64257689	     -0.07517617	     -0.17424410	     -0.53892523	     -0.06980645	     -0.10721848	     -0.40937386	     -0.06443672	     -1.34030606	     -2.98961846	     -0.47783695	      0.00000000	      0.00000000	     25.83808449	      2.34018832	      0.84033295	     16.04145003	      9.35983422	    -45.81264188	    108.73107433	     68.51146105	    -18.34827146	     -7.36107546	     20.17587771	      6.46709284	    186.93682565	      0.39619879	      1.47244287	     -6.73439236	    -18.89171533
      1.34693878	      4.67097702	     -3.73225447	     89.67685393	      0.21680590	      0.77384254	      0.79868733	     10.44185813	      2.27623324	      8.37051311	      8.68629108	      0.15160438	     33.38901153	      4.90430157	      0.00000000	      9.82068549	     -4.95801308	    -17.81258972	      9.91576550	      0.17306276	     39.80007706	     16.17996085	      0.00000000	     -0.19780604	      0.14968791	      0.40068015	     -0.36734559	      0.19908492	      0.42572266	     -0.32497554	      0.36395119	      0.42572266	     -0.22607252	      0.36395119	      0.35059513	     -0.18368268	      0.30524359	      0.32555262	     -0.11302637	      0.23186657	      0.30051011	     -1.41290873	      1.69329958	      2.22846278	      0.00000000	      0.00000000	     23.09201446	     -1.27540845	      0.07238455	     13.69044049	      5.11528799	    -47.41975972	    110.03148417	     64.26866728	    -17.70527806	     -5.97787605	     21.37071323	      9.07336459	    181.95045711	      0.29776918	      1.14516095	     -6.30696990	    -23.99445013
